<svg id="Artwork" xmlns="http://www.w3.org/2000/svg" height="50" width="250" viewBox="0 0 579.85 113.39"><path d="M264.36,291.59c-11,0-15.89-9.09-15.89-20.29s4.92-20.3,15.89-20.3,15.84,9.21,15.84,20.29S275.34,291.59,264.36,291.59Zm0-37.4c-8.1,0-11,8.87-11,17S256,288,264.36,288s10.93-8.81,10.93-16.82S272.47,254.19,264.36,254.19Z" transform="translate(-107.71 -240.94)" style="fill:#003c57"/><path d="M293.85,263v27.91h-4.44V263h-4.55v-2.73h4.55v-4.43c0-5.57,3.29-9.61,9.77-9.61.47,0,1.05.06,1.05.06v2.84h-.52c-3.09,0-5.86,2-5.86,6.19v5h6.38V263Z" transform="translate(-107.71 -240.94)" style="fill:#003c57"/><path d="M312.2,263v27.91h-4.44V263h-4.55v-2.73h4.55v-4.43c0-5.57,3.29-9.61,9.77-9.61.47,0,1.05.06,1.05.06v2.84h-.52c-3.09,0-5.86,2-5.86,6.19v5h6.38V263Z" transform="translate(-107.71 -240.94)" style="fill:#003c57"/><path d="M325.9,254.37a2.75,2.75,0,0,1-2.82-2.68v-.05a2.82,2.82,0,0,1,5.64,0,2.75,2.75,0,0,1-2.77,2.73Zm-2.25,36.49V260.22h4.5v30.64Z" transform="translate(-107.71 -240.94)" style="fill:#003c57"/><path d="M347.29,291.59c-7.27,0-12.86-6.25-12.86-16.08,0-10,5.59-16,13-16,3.71,0,6.17,1,7.48,2.1l-1.16,2.73a9.06,9.06,0,0,0-5.33-1.65c-6.22,0-9.4,5.4-9.4,12.68,0,7.5,3.65,12.85,9.25,12.85a9.63,9.63,0,0,0,5.43-1.66l1.21,3C353.61,290.57,351,291.59,347.29,291.59Z" transform="translate(-107.71 -240.94)" style="fill:#003c57"/><path d="M362.18,277.38c.58,7.22,4.55,10.86,10.77,10.86a17.87,17.87,0,0,0,8.31-1.87l1.31,3.12a21.58,21.58,0,0,1-9.93,2.1c-8.62,0-14.74-5.11-14.74-16.14,0-10.51,5.64-16,13.33-16s12.54,4.78,12.54,15Zm8.89-15c-5,0-9.15,3.86-9.09,12.45l17.4-2.39C379.38,265.33,376,262.38,371.07,262.38Z" transform="translate(-107.71 -240.94)" style="fill:#003c57"/><path d="M412.22,263v27.91h-4.45V263h-4.54v-2.73h4.54v-4.43c0-5.57,3.3-9.61,9.78-9.61.47,0,1,.06,1,.06v2.84H418c-3.08,0-5.85,2-5.85,6.19v5h6.37V263Z" transform="translate(-107.71 -240.94)" style="fill:#003c57"/><path d="M434.85,291.59c-9,0-13.17-7-13.17-16s4.13-16.09,13.17-16.09,13.12,7,13.12,16.09S443.9,291.59,434.85,291.59Zm0-29.1c-6.69,0-8.62,6.77-8.62,13.08s2.09,12.78,8.62,12.78c6.69,0,8.62-6.48,8.62-12.78S441.54,262.49,434.85,262.49Z" transform="translate(-107.71 -240.94)" style="fill:#003c57"/><path d="M467.27,263.06c-2.83-.74-7-.62-8.89.57v27.23h-4.5V261.58c3.24-1.36,6.49-2.1,12.23-2.1.79,0,1.84,0,2.3.06Z" transform="translate(-107.71 -240.94)" style="fill:#003c57"/><path d="M274.45,352.85,257.1,326.08a38.28,38.28,0,0,1-2.25-4h-.1s.15,2.27.15,4.66v26.09h-5.69v-39.1h6.42L272.1,338.9a36,36,0,0,1,2.3,4h.1s-.2-2.22-.2-4.55v-24.6H280v39.1Z" transform="translate(-107.71 -240.94)" style="fill:#003c57"/><path d="M298.76,353.65c-9,0-13.22-3.59-13.22-9.44,0-8.24,8.63-10.46,18.87-11.37v-1.76c0-4.21-2.87-5.46-7.05-5.46a21.86,21.86,0,0,0-8.32,1.77l-1.51-3.75a29,29,0,0,1,11-2.22c6.79,0,12,2.78,12,10.63v19.38C308,352.74,303.84,353.65,298.76,353.65Zm5.65-17.74c-7.58.8-12.65,2.22-12.65,8.13,0,4.15,2.93,5.91,7.53,5.91a12,12,0,0,0,5.12-1Z" transform="translate(-107.71 -240.94)" style="fill:#003c57"/><path d="M328.35,353.53c-6.43,0-8.89-4.15-8.89-8.3v-19h-4.28v-4h4.28v-6.88l6.54-1.82v8.7h6v4h-6v18.7a3.92,3.92,0,0,0,3.58,4.25,4,4,0,0,0,.6,0,6.36,6.36,0,0,0,1.78-.28v4A9.47,9.47,0,0,1,328.35,353.53Z" transform="translate(-107.71 -240.94)" style="fill:#003c57"/><path d="M340.38,316.93a3.43,3.43,0,1,1,3.81-3.41A3.65,3.65,0,0,1,340.38,316.93Zm-3.29,35.92V322.22h6.58v30.63Z" transform="translate(-107.71 -240.94)" style="fill:#003c57"/><path d="M363.33,353.65c-9.36,0-14-6.94-14-16.09s4.65-16.14,14-16.14,13.95,7,13.95,16.14S372.68,353.65,363.33,353.65Zm0-28c-5.65,0-7.32,5.91-7.32,11.89s1.77,11.64,7.32,11.64,7.31-5.68,7.31-11.64-1.64-11.92-7.31-11.92Z" transform="translate(-107.71 -240.94)" style="fill:#003c57"/><path d="M401.6,352.85V331c0-3.93-3.35-5.41-7.11-5.41a14.65,14.65,0,0,0-5.28.92v26.37h-6.54V323.64a32.34,32.34,0,0,1,12.18-2.22c8,0,13.33,2.73,13.33,9.43v22Z" transform="translate(-107.71 -240.94)" style="fill:#003c57"/><path d="M426.59,353.65c-9,0-13.23-3.59-13.23-9.44,0-8.24,8.63-10.46,18.87-11.37v-1.76c0-4.21-2.87-5.46-7.05-5.46a21.81,21.81,0,0,0-8.31,1.77l-1.52-3.75a29,29,0,0,1,11-2.22c6.79,0,12,2.78,12,10.63v19.38C435.79,352.74,431.66,353.65,426.59,353.65Zm5.64-17.74c-7.58.8-12.65,2.22-12.65,8.13,0,4.15,2.93,5.91,7.53,5.91a12,12,0,0,0,5.12-1Z" transform="translate(-107.71 -240.94)" style="fill:#003c57"/><path d="M445.15,352.85V308.23h6.53v44.62Z" transform="translate(-107.71 -240.94)" style="fill:#003c57"/><path d="M482.79,353.65a23.1,23.1,0,0,1-10.66-2.22l1.83-4.78a16.18,16.18,0,0,0,7.52,1.88c4.55,0,7.79-2.67,7.79-6.54,0-8.58-16.26-5.28-16.26-17.45,0-6.2,5-11.59,13-11.59a19.22,19.22,0,0,1,9.4,2.22l-1.66,4.26a14.54,14.54,0,0,0-6.85-1.82c-4.24,0-7,2.56-7,6.2,0,8.41,16.62,4.77,16.62,17.72C496.48,348.47,490.79,353.65,482.79,353.65Z" transform="translate(-107.71 -240.94)" style="fill:#003c57"/><path d="M513.06,353.53c-6.43,0-8.89-4.15-8.89-8.3v-19h-4.28v-4h4.28v-6.88l6.54-1.82v8.7h6v4h-6v18.7a3.92,3.92,0,0,0,3.58,4.25,4,4,0,0,0,.6,0,6.36,6.36,0,0,0,1.78-.28v4A9.47,9.47,0,0,1,513.06,353.53Z" transform="translate(-107.71 -240.94)" style="fill:#003c57"/><path d="M533.45,353.65c-9,0-13.22-3.59-13.22-9.44,0-8.24,8.62-10.46,18.86-11.37v-1.76c0-4.21-2.87-5.46-7.05-5.46a21.81,21.81,0,0,0-8.31,1.77l-1.52-3.75a29,29,0,0,1,11-2.22c6.79,0,12,2.78,12,10.63v19.38C542.65,352.74,538.52,353.65,533.45,353.65Zm5.64-17.74c-7.57.8-12.64,2.22-12.64,8.13,0,4.15,2.92,5.91,7.52,5.91a12,12,0,0,0,5.12-1Z" transform="translate(-107.71 -240.94)" style="fill:#003c57"/><path d="M563,353.53c-6.43,0-8.89-4.15-8.89-8.3v-19h-4.29v-4h4.29v-6.88l6.53-1.82v8.7h6v4h-6v18.7a4,4,0,0,0,3.6,4.26h.59a6.23,6.23,0,0,0,1.77-.28v4A9.42,9.42,0,0,1,563,353.53Z" transform="translate(-107.71 -240.94)" style="fill:#003c57"/><path d="M575.06,316.93a3.43,3.43,0,1,1,3.82-3.41A3.64,3.64,0,0,1,575.06,316.93Zm-3.29,35.92V322.22h6.59v30.63Z" transform="translate(-107.71 -240.94)" style="fill:#003c57"/><path d="M592.63,353.65a19.11,19.11,0,0,1-9.25-2.22l1.72-4.21a12.8,12.8,0,0,0,6.69,1.82c3.35,0,6-2.16,6-4.77,0-7.28-13.43-3.87-13.43-13.87,0-4.55,4.08-9,10.71-9a16.43,16.43,0,0,1,8.63,2.22l-1.72,3.8a10.25,10.25,0,0,0-5.6-1.76c-3.39,0-5.49,2-5.49,4.38,0,6.82,13.7,3.8,13.7,14C604.6,349,600,353.65,592.63,353.65Z" transform="translate(-107.71 -240.94)" style="fill:#003c57"/><path d="M621.23,353.53c-6.43,0-8.89-4.15-8.89-8.3v-19h-4.28v-4h4.28v-6.88l6.54-1.82v8.7h6v4h-6v18.7a3.92,3.92,0,0,0,3.58,4.25,4,4,0,0,0,.6,0,6.36,6.36,0,0,0,1.78-.28v4A9.47,9.47,0,0,1,621.23,353.53Z" transform="translate(-107.71 -240.94)" style="fill:#003c57"/><path d="M633.26,316.93a3.43,3.43,0,1,1,3.82-3.41A3.65,3.65,0,0,1,633.26,316.93ZM630,352.85V322.22h6.59v30.63Z" transform="translate(-107.71 -240.94)" style="fill:#003c57"/><path d="M655.48,353.65c-7.53,0-13.28-6.15-13.28-16.14s5.91-16.09,13.32-16.09a12.74,12.74,0,0,1,7.85,2.22l-1.47,3.69a8.26,8.26,0,0,0-4.81-1.48c-5.33,0-8.1,4.6-8.1,11.48s3.19,11.6,8,11.6a8.27,8.27,0,0,0,4.81-1.54l1.62,4C662.06,352.57,659.39,353.65,655.48,353.65Z" transform="translate(-107.71 -240.94)" style="fill:#003c57"/><path d="M675.6,353.65a19.23,19.23,0,0,1-9.25-2.22l1.73-4.21a12.8,12.8,0,0,0,6.69,1.82c3.34,0,6-2.16,6-4.77,0-7.28-13.43-3.87-13.43-13.87,0-4.55,4.07-9,10.71-9a16.43,16.43,0,0,1,8.63,2.22l-1.73,3.8a10.13,10.13,0,0,0-5.59-1.76c-3.4,0-5.49,2-5.49,4.38,0,6.82,13.69,3.8,13.69,14C687.57,349,682.92,353.65,675.6,353.65Z" transform="translate(-107.71 -240.94)" style="fill:#003c57"/><path d="M107.72,309.66c1.71-3.56,3.5-7.05,5.47-10.4a113.36,113.36,0,0,1-5.46-16.78C107.72,291.85,107.72,301.84,107.72,309.66Zm10.61-68.72s-10.59,0-10.59,13.13v7a124.67,124.67,0,0,0,7.68,34.57,111.26,111.26,0,0,1,21.7-25.3c17.15-14.71,40.25-24.89,71.6-29.37Z" transform="translate(-107.71 -240.94)" style="fill:#a8bd3a"/><path d="M220.54,248.12c-35.85,3.42-60.34,13.67-77.88,28.67a105.26,105.26,0,0,0-23,28.3c13.76,26.73,40,46.37,83.73,49.24h4.26s13.44.46,13.44-14.51V248A4.88,4.88,0,0,1,220.54,248.12Zm-92.16,76.13a92.09,92.09,0,0,1-10.67-15.59,169.64,169.64,0,0,0-10,23.38v22.29H179.4c-22.35-5.33-39.1-16.1-51-30.08Z" transform="translate(-107.71 -240.94)" style="fill:#003c57"/></svg>